# WaveFront *.obj file (generated by Autodesk ATF)

mtllib Aluminium.mtl

g Body1

v 0.591490 0.247376 0.263593
v 0.611490 0.247376 0.263593
v 0.611490 -0.247376 0.263593
v 0.591490 -0.247376 0.263593
v 0.611490 0.247376 0.283593
v 0.611490 -0.247376 0.283593
v 0.591490 0.247376 0.283593
v 0.591490 -0.247376 0.283593
vt 2.000000 49.475299 0.000000
vt -0.000000 49.475299 0.000000
vt 2.000000 0.000000 0.000000
vt -0.000000 0.000000 0.000000
vt 2.000000 49.475299 0.000000
vt -0.000000 49.475299 0.000000
vt 2.000000 0.000000 0.000000
vt -0.000000 0.000000 0.000000
vt 2.000000 49.475299 0.000000
vt 0.000000 49.475299 0.000000
vt 2.000000 0.000000 0.000000
vt 0.000000 0.000000 0.000000
vt 2.000000 49.475299 0.000000
vt 0.000000 49.475299 0.000000
vt 2.000000 0.000000 0.000000
vt 0.000000 0.000000 0.000000
vt -1.000000 -1.000000 0.000000
vt 1.000000 -1.000000 0.000000
vt -1.000000 1.000000 0.000000
vt 1.000000 1.000000 0.000000
vt 1.000000 1.000000 0.000000
vt -1.000000 1.000000 0.000000
vt 1.000000 -1.000000 0.000000
vt -1.000000 -1.000000 0.000000
vn 0.000000 0.000000 -100.000000
vn 0.000000 0.000000 -100.000000
vn 0.000000 0.000000 -100.000000
vn 0.000000 0.000000 -100.000000
vn 100.000000 0.000000 0.000000
vn 100.000000 0.000000 0.000000
vn 100.000000 0.000000 0.000000
vn 100.000000 0.000000 0.000000
vn 0.000000 -0.000000 100.000000
vn 0.000000 -0.000000 100.000000
vn 0.000000 -0.000000 100.000000
vn 0.000000 -0.000000 100.000000
vn -100.000000 0.000000 0.000000
vn -100.000000 0.000000 0.000000
vn -100.000000 0.000000 0.000000
vn -100.000000 0.000000 0.000000
vn 0.000000 -100.000000 0.000000
vn 0.000000 -100.000000 0.000000
vn 0.000000 -100.000000 0.000000
vn 0.000000 -100.000000 0.000000
vn 0.000000 100.000000 -0.000000
vn 0.000000 100.000000 -0.000000
vn 0.000000 100.000000 -0.000000
vn 0.000000 100.000000 -0.000000
usemtl Aluminum_-_Bead_Blasted
f 1/1/1 2/2/2 4/3/3
f 4/3/3 2/2/2 3/4/4
f 2/5/5 5/6/6 3/7/7
f 3/7/7 5/6/6 6/8/8
f 5/9/9 7/10/10 6/11/11
f 6/11/11 7/10/10 8/12/12
f 7/13/13 1/14/14 8/15/15
f 8/15/15 1/14/14 4/16/16
f 4/17/17 3/18/18 8/19/19
f 8/19/19 3/18/18 6/20/20
f 5/21/21 2/22/22 7/23/23
f 7/23/23 2/22/22 1/24/24
g Body2

v -0.611490 0.247376 0.263593
v -0.591490 0.247376 0.263593
v -0.591490 -0.247376 0.263593
v -0.611490 -0.247376 0.263593
v -0.611490 0.247376 0.283593
v -0.611490 -0.247376 0.283593
v -0.591490 0.247376 0.283593
v -0.591490 -0.247376 0.283593
vt -0.000000 49.475299 0.000000
vt -2.000000 49.475299 0.000000
vt -0.000000 0.000000 0.000000
vt -2.000000 0.000000 0.000000
vt -0.000000 49.475299 0.000000
vt -2.000000 49.475299 0.000000
vt -0.000000 0.000000 0.000000
vt -2.000000 0.000000 0.000000
vt -0.000000 49.475299 0.000000
vt -2.000000 49.475299 0.000000
vt -0.000000 0.000000 0.000000
vt -2.000000 0.000000 0.000000
vt -0.000000 49.475299 0.000000
vt -2.000000 49.475299 0.000000
vt -0.000000 0.000000 0.000000
vt -2.000000 0.000000 0.000000
vt -1.000000 -1.000000 0.000000
vt 1.000000 -1.000000 0.000000
vt -1.000000 1.000000 0.000000
vt 1.000000 1.000000 0.000000
vt 1.000000 1.000000 0.000000
vt -1.000000 1.000000 0.000000
vt 1.000000 -1.000000 0.000000
vt -1.000000 -1.000000 0.000000
vn 0.000000 0.000000 -100.000000
vn 0.000000 0.000000 -100.000000
vn 0.000000 0.000000 -100.000000
vn 0.000000 0.000000 -100.000000
vn -100.000000 0.000000 0.000000
vn -100.000000 0.000000 0.000000
vn -100.000000 0.000000 0.000000
vn -100.000000 0.000000 0.000000
vn 0.000000 0.000000 100.000000
vn 0.000000 0.000000 100.000000
vn 0.000000 0.000000 100.000000
vn 0.000000 0.000000 100.000000
vn 100.000000 0.000000 0.000000
vn 100.000000 0.000000 0.000000
vn 100.000000 0.000000 0.000000
vn 100.000000 0.000000 0.000000
vn 0.000000 -100.000000 0.000000
vn 0.000000 -100.000000 0.000000
vn 0.000000 -100.000000 0.000000
vn 0.000000 -100.000000 0.000000
vn -0.000000 100.000000 -0.000000
vn -0.000000 100.000000 -0.000000
vn -0.000000 100.000000 -0.000000
vn -0.000000 100.000000 -0.000000
f 9/25/25 10/26/26 12/27/27
f 12/27/27 10/26/26 11/28/28
f 13/29/29 9/30/30 14/31/31
f 14/31/31 9/30/30 12/32/32
f 15/33/33 13/34/34 16/35/35
f 16/35/35 13/34/34 14/36/36
f 10/37/37 15/38/38 11/39/39
f 11/39/39 15/38/38 16/40/40
f 12/41/41 11/42/42 14/43/43
f 14/43/43 11/42/42 16/44/44
f 9/45/45 13/46/46 10/47/47
f 10/47/47 13/46/46 15/48/48
# 16 vertices
# 48 texture params
# 48 normals
# 24 facets

# 2 groups
